<svg width="314" height="440" viewBox="0 0 314 440" fill="none" xmlns="http://www.w3.org/2000/svg">
<g filter="url(#filter0_d_4233_8857)">
<rect x="69" y="295" width="172" height="111" rx="10" transform="rotate(-90 69 295)" fill="black"/>
</g>
<g opacity="0.6">
<mask id="mask0_4233_8857" style="mask-type:alpha" maskUnits="userSpaceOnUse" x="69" y="123" width="111" height="172">
<rect x="69" y="295" width="172" height="111" rx="10" transform="rotate(-90 69 295)" fill="black"/>
</mask>
<g mask="url(#mask0_4233_8857)">
<g filter="url(#filter1_f_4233_8857)">
<path d="M103.718 176.241C100.094 183.484 91.2832 186.418 84.0395 182.794C76.7958 179.17 73.8616 170.36 77.486 163.116C81.1103 155.872 89.9206 152.938 97.1643 156.562C104.408 160.187 107.342 168.997 103.718 176.241Z" fill="#B698EF"/>
<path d="M81.6013 190.477C77.977 197.721 69.1667 200.655 61.9229 197.03C54.6792 193.406 51.7451 184.596 55.3694 177.352C58.9937 170.108 67.804 167.174 75.0478 170.798C82.2915 174.423 85.2256 183.233 81.6013 190.477Z" fill="#B698EF"/>
<path d="M105.586 202.477C101.962 209.721 93.1516 212.655 85.9079 209.031C78.6641 205.406 75.73 196.596 79.3544 189.352C82.9787 182.109 91.7889 179.175 99.0327 182.799C106.276 186.423 109.211 195.233 105.586 202.477Z" fill="#B698EF"/>
<path d="M82.9163 178.484L89.6616 181.859L86.2867 188.604L79.5413 185.229L82.9163 178.484Z" fill="#B698EF"/>
<path d="M83.4718 222.324C78.1029 212.637 76.9855 206.495 78.0939 198.819C77.8564 197.647 77.7609 196.443 77.8164 195.234C76.8702 196.013 75.8354 196.665 74.7399 197.181C69.2738 202.654 63.6971 205.441 52.7431 206.949L83.4718 222.324Z" fill="#B698EF"/>
</g>
<g filter="url(#filter2_f_4233_8857)">
<path d="M159.469 128.808C161.441 133.527 159.213 138.95 154.494 140.921C149.775 142.892 144.352 140.665 142.381 135.946C140.41 131.227 142.637 125.804 147.356 123.833C152.075 121.862 157.498 124.089 159.469 128.808Z" fill="#B698EF"/>
<path d="M159.469 128.808C161.441 133.527 159.213 138.95 154.494 140.921C149.775 142.892 144.352 140.665 142.381 135.946C140.41 131.227 142.637 125.804 147.356 123.833C152.075 121.862 157.498 124.089 159.469 128.808Z" fill="url(#paint0_linear_4233_8857)"/>
<path d="M157.164 145.253C159.135 149.972 156.908 155.396 152.189 157.367C147.47 159.338 142.047 157.111 140.076 152.392C138.105 147.673 140.332 142.25 145.051 140.278C149.77 138.307 155.193 140.535 157.164 145.253Z" fill="#B698EF"/>
<path d="M157.164 145.253C159.135 149.972 156.908 155.396 152.189 157.367C147.47 159.338 142.047 157.111 140.076 152.392C138.105 147.673 140.332 142.25 145.051 140.278C149.77 138.307 155.193 140.535 157.164 145.253Z" fill="url(#paint1_linear_4233_8857)"/>
<path d="M172.789 138.727C174.76 143.445 172.533 148.869 167.814 150.84C163.095 152.811 157.672 150.584 155.7 145.865C153.729 141.146 155.957 135.723 160.675 133.752C165.394 131.78 170.818 134.008 172.789 138.727Z" fill="#B698EF"/>
<path d="M172.789 138.727C174.76 143.445 172.533 148.869 167.814 150.84C163.095 152.811 157.672 150.584 155.7 145.865C153.729 141.146 155.957 135.723 160.675 133.752C165.394 131.78 170.818 134.008 172.789 138.727Z" fill="url(#paint2_linear_4233_8857)"/>
<path d="M151.97 139.682L156.364 137.846L158.199 142.241L153.805 144.076L151.97 139.682Z" fill="#B698EF"/>
<path d="M151.97 139.682L156.364 137.846L158.199 142.241L153.805 144.076L151.97 139.682Z" fill="url(#paint3_linear_4233_8857)"/>
<path d="M173.168 157.484C166.322 156.059 162.924 154.062 159.709 150.369C159.051 150 158.435 149.549 157.88 149.024C157.863 149.798 157.748 150.562 157.543 151.298C157.909 156.169 156.943 159.984 153.15 165.846L173.168 157.484Z" fill="#B698EF"/>
<path d="M173.168 157.484C166.322 156.059 162.924 154.062 159.709 150.369C159.051 150 158.435 149.549 157.88 149.024C157.863 149.798 157.748 150.562 157.543 151.298C157.909 156.169 156.943 159.984 153.15 165.846L173.168 157.484Z" fill="url(#paint4_linear_4233_8857)"/>
</g>
</g>
</g>
<path d="M149 233.89V242H102.143V235.661L128.692 210.025C131.921 206.918 134.095 204.246 135.213 202.008C136.331 199.709 136.89 197.41 136.89 195.11C136.89 191.692 135.679 189.051 133.257 187.186C130.897 185.26 127.481 184.297 123.01 184.297C115.805 184.297 110.247 186.658 106.335 191.381L100 185.881C102.546 182.774 105.869 180.35 109.968 178.61C114.129 176.87 118.755 176 123.848 176C130.679 176 136.113 177.647 140.15 180.941C144.187 184.172 146.205 188.585 146.205 194.178C146.205 197.658 145.46 200.952 143.97 204.059C142.479 207.167 139.653 210.709 135.492 214.686L115.557 233.89H149Z" fill="white"/>
<g opacity="0.6">
<mask id="mask1_4233_8857" style="mask-type:alpha" maskUnits="userSpaceOnUse" x="69" y="123" width="111" height="172">
<rect x="69" y="295" width="172" height="111" rx="10" transform="rotate(-90 69 295)" fill="black"/>
</mask>
<g mask="url(#mask1_4233_8857)">
<g filter="url(#filter3_df_4233_8857)">
<path d="M183.108 258.168C177.163 265.789 166.166 267.147 158.546 261.202C150.926 255.257 149.568 244.26 155.513 236.639C161.458 229.019 172.455 227.661 180.075 233.606C187.695 239.551 189.053 250.548 183.108 258.168Z" fill="#B698EF"/>
<path d="M183.108 258.168C177.163 265.789 166.166 267.147 158.546 261.202C150.926 255.257 149.568 244.26 155.513 236.639C161.458 229.019 172.455 227.661 180.075 233.606C187.695 239.551 189.053 250.548 183.108 258.168Z" fill="url(#paint5_linear_4233_8857)"/>
<path d="M153.885 269.615C147.94 277.235 136.943 278.593 129.323 272.648C121.703 266.703 120.345 255.706 126.29 248.086C132.235 240.465 143.232 239.107 150.852 245.052C158.472 250.997 159.83 261.994 153.885 269.615Z" fill="#B698EF"/>
<path d="M153.885 269.615C147.94 277.235 136.943 278.593 129.323 272.648C121.703 266.703 120.345 255.706 126.29 248.086C132.235 240.465 143.232 239.107 150.852 245.052C158.472 250.997 159.83 261.994 153.885 269.615Z" fill="url(#paint6_linear_4233_8857)"/>
<path d="M179.117 289.299C173.172 296.919 162.175 298.277 154.555 292.332C146.934 286.387 145.576 275.391 151.521 267.77C157.466 260.15 168.463 258.792 176.084 264.737C183.704 270.682 185.062 281.679 179.117 289.299Z" fill="#B698EF"/>
<path d="M179.117 289.299C173.172 296.919 162.175 298.277 154.555 292.332C146.934 286.387 145.576 275.391 151.521 267.77C157.466 260.15 168.463 258.792 176.084 264.737C183.704 270.682 185.062 281.679 179.117 289.299Z" fill="url(#paint7_linear_4233_8857)"/>
<path d="M158.247 255.895L165.343 261.431L159.807 268.527L152.711 262.991L158.247 255.895Z" fill="#B698EF"/>
<path d="M158.247 255.895L165.343 261.431L159.807 268.527L152.711 262.991L158.247 255.895Z" fill="url(#paint8_linear_4233_8857)"/>
<path d="M148.575 307.309C144.575 294.713 144.715 287.265 147.818 278.547C147.816 277.12 147.988 275.689 148.338 274.288C147.047 274.977 145.683 275.496 144.281 275.841C136.598 280.957 129.418 282.904 116.249 282.09L148.575 307.309Z" fill="#B698EF"/>
<path d="M148.575 307.309C144.575 294.713 144.715 287.265 147.818 278.547C147.816 277.12 147.988 275.689 148.338 274.288C147.047 274.977 145.683 275.496 144.281 275.841C136.598 280.957 129.418 282.904 116.249 282.09L148.575 307.309Z" fill="url(#paint9_linear_4233_8857)"/>
</g>
</g>
</g>
<path d="M171.127 139.013V140H165.42V139.228L168.654 136.108C169.047 135.73 169.312 135.405 169.448 135.132C169.584 134.852 169.652 134.573 169.652 134.293C169.652 133.877 169.505 133.555 169.21 133.328C168.922 133.094 168.506 132.977 167.961 132.977C167.084 132.977 166.407 133.264 165.93 133.839L165.159 133.169C165.469 132.791 165.874 132.496 166.373 132.284C166.88 132.073 167.443 131.967 168.064 131.967C168.896 131.967 169.558 132.167 170.049 132.568C170.541 132.961 170.787 133.498 170.787 134.179C170.787 134.603 170.696 135.004 170.514 135.382C170.333 135.76 169.989 136.191 169.482 136.675L167.054 139.013H171.127Z" fill="white"/>
<path d="M168.177 279.043H168.765L169.706 280.163H170.765L169.469 278.62L170.765 276.801H169.706L168.748 278.146H168.177V274.896C168.177 274.401 167.756 274 167.236 274L167.236 280.163H168.177V279.043Z" fill="white"/>
<path d="M166.012 281.084C165.698 280.858 165.307 280.724 164.885 280.724V280.724C164.884 280.724 164.884 280.724 164.883 280.724C164.883 280.724 164.882 280.724 164.882 280.724V280.724C163.845 280.725 163.003 281.529 163.003 282.516C163.003 283.504 163.845 284.308 164.882 284.309V284.309C164.882 284.309 164.883 284.309 164.883 284.309C164.884 284.309 164.884 284.309 164.885 284.309V284.309C165.227 284.309 165.549 284.221 165.826 284.067V285.206C165.826 285.701 165.403 286.104 164.883 286.104C164.364 286.104 163.941 285.701 163.941 285.206H163C163 286.195 163.845 287 164.883 287C165.922 287 166.767 286.195 166.767 285.206L166.767 280.724C166.458 280.724 166.184 280.865 166.012 281.084ZM164.883 283.413C164.365 283.412 163.944 283.01 163.944 282.516C163.944 282.023 164.365 281.621 164.883 281.62C165.402 281.621 165.823 282.023 165.823 282.516C165.823 283.01 165.402 283.412 164.883 283.413Z" fill="white"/>
<path d="M170.422 282.291H171C170.893 281.474 170.212 280.826 169.355 280.724V281.274H168.881V280.724C168.025 280.826 167.344 281.474 167.236 282.291H167.814V282.742H167.236C167.344 283.558 168.025 284.207 168.881 284.309V283.759H169.355V284.309C170.212 284.207 170.893 283.558 171 282.742H170.422V282.291ZM169.118 282.968C168.857 282.968 168.644 282.766 168.644 282.516C168.644 282.267 168.857 282.065 169.118 282.065C169.38 282.065 169.593 282.267 169.593 282.516C169.593 282.766 169.38 282.968 169.118 282.968Z" fill="white"/>
<path d="M166.768 278.482C166.768 277.494 165.924 276.689 164.886 276.689C163.848 276.689 163.004 277.494 163.004 278.482C163.004 279.471 163.848 280.275 164.886 280.275C165.259 280.275 165.606 280.171 165.899 279.993L166.796 280.277L166.494 279.413C166.668 279.141 166.768 278.823 166.768 278.482ZM164.651 278.482H163.71V278.034H164.651V278.482ZM165.121 278.034H166.062V278.482H165.121V278.034Z" fill="white"/>
<path d="M83.1773 136.043H83.7654L84.7064 137.163H85.765L84.4688 135.62L85.765 133.801H84.7064L83.7477 135.146H83.1773V131.896C83.1773 131.401 82.756 131 82.2363 131L82.2363 137.163H83.1773V136.043Z" fill="white"/>
<path d="M81.0123 138.084C80.698 137.858 80.3074 137.724 79.8846 137.724V137.724C79.8842 137.724 79.8837 137.724 79.8833 137.724C79.8828 137.724 79.8824 137.724 79.882 137.724V137.724C78.8454 137.725 78.0026 138.529 78.0026 139.516C78.0026 140.504 78.8454 141.308 79.882 141.309V141.309C79.8824 141.309 79.8828 141.309 79.8833 141.309C79.8837 141.309 79.8842 141.309 79.8846 141.309V141.309C80.2272 141.309 80.5487 141.221 80.8256 141.067V142.206C80.8256 142.701 80.4029 143.104 79.8833 143.104C79.3637 143.104 78.941 142.701 78.941 142.206H78C78 143.195 78.8448 144 79.8833 144C80.9217 144 81.7666 143.195 81.7666 142.206L81.7666 137.724C81.4579 137.724 81.1839 137.865 81.0123 138.084ZM79.8833 140.413C79.365 140.412 78.9436 140.01 78.9436 139.516C78.9436 139.023 79.365 138.621 79.8833 138.62C80.4015 138.621 80.823 139.023 80.823 139.516C80.823 140.01 80.4015 140.412 79.8833 140.413Z" fill="white"/>
<path d="M85.4223 139.291H86.0003C85.893 138.474 85.2121 137.826 84.3554 137.724V138.274H83.8812V137.724C83.0245 137.826 82.3436 138.474 82.2363 139.291H82.8143V139.742H82.2363C82.3436 140.558 83.0245 141.207 83.8812 141.309V140.759H84.3554V141.309C85.2121 141.207 85.893 140.558 86.0003 139.742H85.4223V139.291ZM84.1183 139.968C83.8568 139.968 83.6441 139.766 83.6441 139.516C83.6441 139.267 83.8568 139.065 84.1183 139.065C84.3798 139.065 84.5925 139.267 84.5925 139.516C84.5925 139.766 84.3798 139.968 84.1183 139.968Z" fill="white"/>
<path d="M81.7679 135.482C81.7679 134.494 80.9236 133.689 79.8859 133.689C78.8482 133.689 78.0039 134.494 78.0039 135.482C78.0039 136.471 78.8482 137.275 79.8859 137.275C80.2587 137.275 80.6065 137.171 80.8992 136.993L81.7964 137.277L81.4939 136.413C81.6677 136.141 81.7679 135.823 81.7679 135.482ZM79.6506 135.482H78.7096V135.034H79.6506V135.482ZM80.1211 135.034H81.0621V135.482H80.1211V135.034Z" fill="white"/>
<path d="M81.3282 282.193C81.3282 281.195 80.5096 280.386 79.4999 280.386C78.4902 280.386 77.6716 281.195 77.6716 282.193C77.6716 283.191 78.4902 284 79.4999 284C80.5096 284 81.3282 283.191 81.3282 282.193Z" fill="white"/>
<path d="M79.6566 279.406C79.6566 278.408 78.8381 277.599 77.8283 277.599C76.8186 277.599 76 278.408 76 279.406C76 280.403 76.8186 281.212 77.8283 281.212C78.8381 281.212 79.6566 280.403 79.6566 279.406Z" fill="white"/>
<path d="M83 279.406C83 278.408 82.1814 277.599 81.1717 277.599C80.1619 277.599 79.3434 278.408 79.3434 279.406C79.3434 280.403 80.1619 281.212 81.1717 281.212C82.1814 281.212 83 280.403 83 279.406Z" fill="white"/>
<path d="M79.1342 280.799H80.0745V279.87H79.1342V280.799Z" fill="white"/>
<path d="M81.6416 276C80.5027 276.771 80.0355 277.386 79.7309 278.293C79.6391 278.409 79.5613 278.537 79.5 278.673C79.438 278.535 79.359 278.406 79.2656 278.289C78.9615 277.384 78.4952 276.77 77.3582 276H81.6416Z" fill="white"/>
<path d="M86.1297 276.987V276H91.8387V276.772L88.604 279.893C88.2105 280.271 87.9457 280.597 87.8095 280.869C87.6733 281.149 87.6052 281.429 87.6052 281.709C87.6052 282.125 87.7527 282.447 88.0478 282.674C88.3354 282.908 88.7515 283.026 89.2963 283.026C90.1741 283.026 90.8513 282.738 91.328 282.163L92.0998 282.833C91.7896 283.211 91.3847 283.506 90.8853 283.718C90.3784 283.93 89.8147 284.036 89.1942 284.036C88.3619 284.036 87.6998 283.835 87.2079 283.434C86.7161 283.041 86.4702 282.504 86.4702 281.823C86.4702 281.399 86.561 280.998 86.7426 280.619C86.9242 280.241 87.2685 279.81 87.7754 279.326L90.2043 276.987H86.1297Z" fill="white"/>
<path d="M160.328 133.807C160.328 134.805 159.51 135.614 158.5 135.614C157.49 135.614 156.672 134.805 156.672 133.807C156.672 132.809 157.49 132 158.5 132C159.51 132 160.328 132.809 160.328 133.807Z" fill="white"/>
<path d="M158.657 136.594C158.657 137.592 157.838 138.401 156.828 138.401C155.819 138.401 155 137.592 155 136.594C155 135.597 155.819 134.788 156.828 134.788C157.838 134.788 158.657 135.597 158.657 136.594Z" fill="white"/>
<path d="M162 136.594C162 137.592 161.181 138.401 160.172 138.401C159.162 138.401 158.343 137.592 158.343 136.594C158.343 135.597 159.162 134.788 160.172 134.788C161.181 134.788 162 135.597 162 136.594Z" fill="white"/>
<path d="M158.134 135.201H159.075V136.13H158.134V135.201Z" fill="white"/>
<path d="M160.642 140C159.503 139.229 159.036 138.614 158.731 137.707C158.639 137.591 158.561 137.463 158.5 137.327C158.438 137.465 158.359 137.594 158.266 137.711C157.962 138.616 157.495 139.23 156.358 140H160.642Z" fill="white"/>
<defs>
<filter id="filter0_d_4233_8857" x="-64.1613" y="0.935489" width="377.323" height="438.323" filterUnits="userSpaceOnUse" color-interpolation-filters="sRGB">
<feFlood flood-opacity="0" result="BackgroundImageFix"/>
<feColorMatrix in="SourceAlpha" type="matrix" values="0 0 0 0 0 0 0 0 0 0 0 0 0 0 0 0 0 0 127 0" result="hardAlpha"/>
<feOffset dy="11.0968"/>
<feGaussianBlur stdDeviation="66.5806"/>
<feComposite in2="hardAlpha" operator="out"/>
<feColorMatrix type="matrix" values="0 0 0 0 0.0823529 0 0 0 0 0.0823529 0 0 0 0 0.117647 0 0 0 0.5 0"/>
<feBlend mode="multiply" in2="BackgroundImageFix" result="effect1_dropShadow_4233_8857"/>
<feBlend mode="normal" in="SourceGraphic" in2="effect1_dropShadow_4233_8857" result="shape"/>
</filter>
<filter id="filter1_f_4233_8857" x="50.5642" y="152.83" width="58.7544" height="71.6731" filterUnits="userSpaceOnUse" color-interpolation-filters="sRGB">
<feFlood flood-opacity="0" result="BackgroundImageFix"/>
<feBlend mode="normal" in="SourceGraphic" in2="BackgroundImageFix" result="shape"/>
<feGaussianBlur stdDeviation="1.08948" result="effect1_foregroundBlur_4233_8857"/>
</filter>
<filter id="filter2_f_4233_8857" x="137.982" y="121.739" width="36.9009" height="45.4823" filterUnits="userSpaceOnUse" color-interpolation-filters="sRGB">
<feFlood flood-opacity="0" result="BackgroundImageFix"/>
<feBlend mode="normal" in="SourceGraphic" in2="BackgroundImageFix" result="shape"/>
<feGaussianBlur stdDeviation="0.687864" result="effect1_foregroundBlur_4233_8857"/>
</filter>
<filter id="filter3_df_4233_8857" x="68.249" y="185.903" width="166.562" height="173.406" filterUnits="userSpaceOnUse" color-interpolation-filters="sRGB">
<feFlood flood-opacity="0" result="BackgroundImageFix"/>
<feColorMatrix in="SourceAlpha" type="matrix" values="0 0 0 0 0 0 0 0 0 0 0 0 0 0 0 0 0 0 127 0" result="hardAlpha"/>
<feOffset dy="4"/>
<feGaussianBlur stdDeviation="24"/>
<feComposite in2="hardAlpha" operator="out"/>
<feColorMatrix type="matrix" values="0 0 0 0 0.0823529 0 0 0 0 0.0823529 0 0 0 0 0.117647 0 0 0 0.5 0"/>
<feBlend mode="multiply" in2="BackgroundImageFix" result="effect1_dropShadow_4233_8857"/>
<feBlend mode="normal" in="SourceGraphic" in2="effect1_dropShadow_4233_8857" result="shape"/>
<feGaussianBlur stdDeviation="1.3" result="effect2_foregroundBlur_4233_8857"/>
</filter>
<linearGradient id="paint0_linear_4233_8857" x1="144.769" y1="113.805" x2="159.408" y2="154.294" gradientUnits="userSpaceOnUse">
<stop stop-color="#15151E"/>
<stop offset="1" stop-color="#15151E" stop-opacity="0"/>
</linearGradient>
<linearGradient id="paint1_linear_4233_8857" x1="144.769" y1="113.805" x2="159.408" y2="154.294" gradientUnits="userSpaceOnUse">
<stop stop-color="#15151E"/>
<stop offset="1" stop-color="#15151E" stop-opacity="0"/>
</linearGradient>
<linearGradient id="paint2_linear_4233_8857" x1="144.769" y1="113.805" x2="159.408" y2="154.294" gradientUnits="userSpaceOnUse">
<stop stop-color="#15151E"/>
<stop offset="1" stop-color="#15151E" stop-opacity="0"/>
</linearGradient>
<linearGradient id="paint3_linear_4233_8857" x1="144.769" y1="113.805" x2="159.408" y2="154.294" gradientUnits="userSpaceOnUse">
<stop stop-color="#15151E"/>
<stop offset="1" stop-color="#15151E" stop-opacity="0"/>
</linearGradient>
<linearGradient id="paint4_linear_4233_8857" x1="144.769" y1="113.805" x2="159.408" y2="154.294" gradientUnits="userSpaceOnUse">
<stop stop-color="#15151E"/>
<stop offset="1" stop-color="#15151E" stop-opacity="0"/>
</linearGradient>
<linearGradient id="paint5_linear_4233_8857" x1="194.192" y1="220.051" x2="141.075" y2="281.689" gradientUnits="userSpaceOnUse">
<stop stop-color="#15151E"/>
<stop offset="1" stop-color="#15151E" stop-opacity="0"/>
</linearGradient>
<linearGradient id="paint6_linear_4233_8857" x1="194.192" y1="220.051" x2="141.075" y2="281.689" gradientUnits="userSpaceOnUse">
<stop stop-color="#15151E"/>
<stop offset="1" stop-color="#15151E" stop-opacity="0"/>
</linearGradient>
<linearGradient id="paint7_linear_4233_8857" x1="194.192" y1="220.051" x2="141.075" y2="281.689" gradientUnits="userSpaceOnUse">
<stop stop-color="#15151E"/>
<stop offset="1" stop-color="#15151E" stop-opacity="0"/>
</linearGradient>
<linearGradient id="paint8_linear_4233_8857" x1="194.192" y1="220.051" x2="141.075" y2="281.689" gradientUnits="userSpaceOnUse">
<stop stop-color="#15151E"/>
<stop offset="1" stop-color="#15151E" stop-opacity="0"/>
</linearGradient>
<linearGradient id="paint9_linear_4233_8857" x1="194.192" y1="220.051" x2="141.075" y2="281.689" gradientUnits="userSpaceOnUse">
<stop stop-color="#15151E"/>
<stop offset="1" stop-color="#15151E" stop-opacity="0"/>
</linearGradient>
</defs>
</svg>
