<svg width="79" height="48" viewBox="0 0 79 48" fill="none" xmlns="http://www.w3.org/2000/svg">
<path d="M26.1352 26.9962H29.1051L33.8569 32.9954H39.2028L32.6569 24.7313L39.2029 14.9979H33.857L29.0155 22.1969H26.1352V4.79933C26.1352 2.14873 24.0077 0 21.3833 0L21.3833 32.9954H26.1352V26.9962Z" fill="white"/>
<path d="M53.8075 16.3271C52.2203 15.1191 50.2479 14.4011 48.1125 14.3981C48.1103 14.3981 48.1081 14.3981 48.1059 14.3981C48.1037 14.3981 48.1015 14.398 48.0993 14.398C42.865 14.4052 38.6087 18.7083 38.6087 23.9966C38.6087 29.2849 42.865 33.5879 48.0993 33.5951C48.1015 33.5951 48.1037 33.5952 48.1059 33.5952C48.1081 33.5952 48.1103 33.5953 48.1125 33.5953C49.8429 33.5929 51.4662 33.1207 52.8644 32.2989V38.3946C52.8644 41.0447 50.7298 43.2007 48.1059 43.2007C45.4821 43.2007 43.3475 41.0447 43.3475 38.3946H38.5956C38.5956 43.691 42.8619 48 48.1059 48C53.35 48 57.6163 43.691 57.6163 38.3947L57.6163 14.398C56.0575 14.398 54.674 15.1561 53.8075 16.3271ZM48.1059 28.7958C45.4887 28.7922 43.3606 26.6408 43.3606 23.9966C43.3606 21.3525 45.4887 19.2011 48.1059 19.1975C50.7231 19.2011 52.8512 21.3525 52.8512 23.9966C52.8512 26.6408 50.7231 28.7922 48.1059 28.7958Z" fill="white"/>
<path d="M76.0814 22.7874H79C78.4581 18.4179 75.0198 14.9453 70.6936 14.398V17.3457H68.2989V14.398C63.9727 14.9453 60.5344 18.4179 59.9925 22.7874H62.9111V25.2059H59.9925C60.5344 29.5754 63.9727 33.048 68.2989 33.5953V30.6476H70.6936V33.5953C75.0198 33.048 78.4581 29.5754 79 25.2059H76.0814V22.7874ZM69.4963 26.4152C68.1758 26.4152 67.1016 25.3302 67.1016 23.9966C67.1016 22.6631 68.1758 21.5781 69.4963 21.5781C70.8167 21.5781 71.8909 22.6631 71.8909 23.9966C71.8909 25.3302 70.8167 26.4152 69.4963 26.4152Z" fill="white"/>
<path d="M19.0075 23.9967C19.0075 18.7039 14.7442 14.398 9.50375 14.398C4.26334 14.398 0 18.7039 0 23.9967C0 29.2894 4.26334 33.5953 9.50375 33.5953C11.3863 33.5953 13.1427 33.0396 14.6207 32.0822L19.1516 33.6076L17.6241 28.9792C18.5015 27.5259 19.0075 25.8198 19.0075 23.9967ZM8.31578 23.9967H3.56391V21.597H8.31578V23.9967ZM10.6917 21.597H15.4436V23.9967H10.6917V21.597Z" fill="white"/>
</svg>
