<svg width="24" height="24" viewBox="0 0 24 24" fill="none" xmlns="http://www.w3.org/2000/svg">
<path d="M20.3149 10.4882H24C23.3158 5.02563 18.9744 0.684208 13.5118 0V3.68516H10.4882V0C5.02562 0.6842 0.6842 5.02563 0 10.4882H3.68516V13.5118H0C0.6842 18.9744 5.02561 23.3158 10.4882 24V20.3148H13.5118V24C18.9744 23.3158 23.3158 18.9744 24 13.5118H20.3149V10.4882ZM12 15.0236C10.3328 15.0236 8.97643 13.6672 8.97643 12C8.97643 10.3328 10.3328 8.97642 12 8.97642C13.6672 8.97642 15.0236 10.3328 15.0236 12C15.0236 13.6672 13.6672 15.0236 12 15.0236Z" fill="#7861A5"/>
</svg>
