<svg width="314" height="440" viewBox="0 0 314 440" fill="none" xmlns="http://www.w3.org/2000/svg">
<g filter="url(#filter0_d_4233_8960)">
<rect x="69" y="295" width="172" height="111" rx="10" transform="rotate(-90 69 295)" fill="black"/>
</g>
<g opacity="0.6">
<mask id="mask0_4233_8960" style="mask-type:alpha" maskUnits="userSpaceOnUse" x="69" y="123" width="111" height="172">
<rect x="69" y="295" width="172" height="111" rx="10" transform="rotate(-90 69 295)" fill="black"/>
</mask>
<g mask="url(#mask0_4233_8960)">
<g filter="url(#filter1_f_4233_8960)">
<path d="M138.785 151.021C138.214 150.743 137.976 150.054 138.254 149.482L149.3 126.785C149.578 126.214 150.267 125.976 150.839 126.254L173.536 137.3C174.107 137.579 174.345 138.267 174.067 138.839L163.021 161.536C162.743 162.108 162.054 162.345 161.482 162.067L138.785 151.021Z" fill="#FF0000"/>
<path d="M138.785 151.021C138.214 150.743 137.976 150.054 138.254 149.482L149.3 126.785C149.578 126.214 150.267 125.976 150.839 126.254L173.536 137.3C174.107 137.579 174.345 138.267 174.067 138.839L163.021 161.536C162.743 162.108 162.054 162.345 161.482 162.067L138.785 151.021Z" fill="url(#paint0_linear_4233_8960)"/>
</g>
<g filter="url(#filter2_f_4233_8960)">
<path d="M56.876 179.603C56.4189 178.634 56.8334 177.479 57.8017 177.022L96.2479 158.877C97.2162 158.42 98.3716 158.834 98.8286 159.802L116.974 198.249C117.431 199.217 117.017 200.372 116.048 200.829L77.602 218.975C76.6337 219.432 75.4783 219.017 75.0213 218.049L56.876 179.603Z" fill="#FF0000"/>
</g>
<g filter="url(#filter3_f_4233_8960)">
<path d="M121.818 247C121.455 245.833 122.106 244.594 123.272 244.231L169.572 229.818C170.738 229.455 171.978 230.107 172.341 231.273L186.753 277.573C187.116 278.739 186.465 279.979 185.299 280.341L138.999 294.754C137.832 295.117 136.593 294.466 136.23 293.3L121.818 247Z" fill="#FF0000"/>
<path d="M121.818 247C121.455 245.833 122.106 244.594 123.272 244.231L169.572 229.818C170.738 229.455 171.978 230.107 172.341 231.273L186.753 277.573C187.116 278.739 186.465 279.979 185.299 280.341L138.999 294.754C137.832 295.117 136.593 294.466 136.23 293.3L121.818 247Z" fill="url(#paint1_linear_4233_8960)"/>
</g>
</g>
</g>
<path d="M149 233.89V242H102.143V235.661L128.692 210.025C131.921 206.918 134.095 204.246 135.213 202.008C136.331 199.709 136.89 197.41 136.89 195.11C136.89 191.692 135.679 189.051 133.257 187.186C130.897 185.26 127.481 184.297 123.01 184.297C115.805 184.297 110.247 186.658 106.335 191.381L100 185.881C102.546 182.774 105.869 180.35 109.968 178.61C114.129 176.87 118.755 176 123.848 176C130.679 176 136.113 177.647 140.15 180.941C144.187 184.172 146.205 188.585 146.205 194.178C146.205 197.658 145.46 200.952 143.97 204.059C142.479 207.167 139.653 210.709 135.492 214.686L115.557 233.89H149Z" fill="white"/>
<g opacity="0.6">
<mask id="mask1_4233_8960" style="mask-type:alpha" maskUnits="userSpaceOnUse" x="69" y="123" width="111" height="172">
<rect x="69" y="295" width="172" height="111" rx="10" transform="rotate(-90 69 295)" fill="black"/>
</mask>
<g mask="url(#mask1_4233_8960)">
<g filter="url(#filter4_df_4233_8960)">
<path d="M121.818 247C121.455 245.833 122.106 244.594 123.272 244.231L169.572 229.818C170.738 229.455 171.978 230.107 172.341 231.273L186.753 277.573C187.116 278.739 186.465 279.979 185.299 280.341L138.999 294.754C137.832 295.117 136.593 294.466 136.23 293.3L121.818 247Z" fill="#FF0000"/>
<path d="M121.818 247C121.455 245.833 122.106 244.594 123.272 244.231L169.572 229.818C170.738 229.455 171.978 230.107 172.341 231.273L186.753 277.573C187.116 278.739 186.465 279.979 185.299 280.341L138.999 294.754C137.832 295.117 136.593 294.466 136.23 293.3L121.818 247Z" fill="url(#paint2_linear_4233_8960)"/>
</g>
</g>
</g>
<path d="M171.127 139.013V140H165.42V139.228L168.654 136.108C169.047 135.73 169.312 135.405 169.448 135.132C169.584 134.852 169.652 134.573 169.652 134.293C169.652 133.877 169.505 133.555 169.21 133.328C168.922 133.094 168.506 132.977 167.961 132.977C167.084 132.977 166.407 133.264 165.93 133.839L165.159 133.169C165.469 132.791 165.874 132.496 166.373 132.284C166.88 132.073 167.443 131.967 168.064 131.967C168.896 131.967 169.558 132.167 170.049 132.568C170.541 132.961 170.787 133.498 170.787 134.179C170.787 134.603 170.696 135.004 170.514 135.382C170.333 135.76 169.989 136.191 169.482 136.675L167.054 139.013H171.127Z" fill="white"/>
<path d="M168.177 279.043H168.765L169.706 280.163H170.765L169.469 278.62L170.765 276.801H169.706L168.748 278.146H168.177V274.896C168.177 274.401 167.756 274 167.236 274L167.236 280.163H168.177V279.043Z" fill="white"/>
<path d="M166.012 281.084C165.698 280.858 165.307 280.724 164.885 280.724V280.724C164.884 280.724 164.884 280.724 164.883 280.724C164.883 280.724 164.882 280.724 164.882 280.724V280.724C163.845 280.725 163.003 281.529 163.003 282.517C163.003 283.504 163.845 284.308 164.882 284.309V284.31C164.882 284.31 164.883 284.309 164.883 284.309C164.884 284.309 164.884 284.31 164.885 284.31V284.309C165.227 284.309 165.549 284.221 165.826 284.067V285.206C165.826 285.701 165.403 286.104 164.883 286.104C164.364 286.104 163.941 285.701 163.941 285.206H163C163 286.195 163.845 287 164.883 287C165.922 287 166.767 286.195 166.767 285.206L166.767 280.724C166.458 280.724 166.184 280.865 166.012 281.084ZM164.883 283.413C164.365 283.412 163.944 283.01 163.944 282.517C163.944 282.023 164.365 281.621 164.883 281.62C165.402 281.621 165.823 282.023 165.823 282.517C165.823 283.01 165.402 283.412 164.883 283.413Z" fill="white"/>
<path d="M170.422 282.291H171C170.893 281.475 170.212 280.826 169.355 280.724V281.274H168.881V280.724C168.025 280.826 167.344 281.475 167.236 282.291H167.814V282.742H167.236C167.344 283.559 168.025 284.207 168.881 284.31V283.759H169.355V284.31C170.212 284.207 170.893 283.559 171 282.742H170.422V282.291ZM169.118 282.968C168.857 282.968 168.644 282.766 168.644 282.517C168.644 282.267 168.857 282.065 169.118 282.065C169.38 282.065 169.593 282.267 169.593 282.517C169.593 282.766 169.38 282.968 169.118 282.968Z" fill="white"/>
<path d="M166.768 278.482C166.768 277.494 165.924 276.689 164.886 276.689C163.848 276.689 163.004 277.494 163.004 278.482C163.004 279.471 163.848 280.275 164.886 280.275C165.259 280.275 165.606 280.172 165.899 279.993L166.796 280.278L166.494 279.413C166.668 279.142 166.768 278.823 166.768 278.482ZM164.651 278.482H163.71V278.034H164.651V278.482ZM165.121 278.034H166.062V278.482H165.121V278.034Z" fill="white"/>
<path d="M83.1773 136.043H83.7654L84.7064 137.163H85.765L84.4688 135.62L85.765 133.801H84.7064L83.7477 135.146H83.1773V131.896C83.1773 131.401 82.756 131 82.2363 131L82.2363 137.163H83.1773V136.043Z" fill="white"/>
<path d="M81.0123 138.084C80.698 137.858 80.3074 137.724 79.8846 137.724V137.724C79.8842 137.724 79.8837 137.724 79.8833 137.724C79.8828 137.724 79.8824 137.724 79.882 137.724V137.724C78.8454 137.725 78.0026 138.529 78.0026 139.517C78.0026 140.504 78.8454 141.308 79.882 141.309V141.31C79.8824 141.31 79.8828 141.309 79.8833 141.309C79.8837 141.309 79.8842 141.31 79.8846 141.31V141.309C80.2272 141.309 80.5487 141.221 80.8256 141.067V142.206C80.8256 142.701 80.4029 143.104 79.8833 143.104C79.3637 143.104 78.941 142.701 78.941 142.206H78C78 143.195 78.8448 144 79.8833 144C80.9217 144 81.7666 143.195 81.7666 142.206L81.7666 137.724C81.4579 137.724 81.1839 137.865 81.0123 138.084ZM79.8833 140.413C79.365 140.412 78.9436 140.01 78.9436 139.517C78.9436 139.023 79.365 138.621 79.8833 138.62C80.4015 138.621 80.823 139.023 80.823 139.517C80.823 140.01 80.4015 140.412 79.8833 140.413Z" fill="white"/>
<path d="M85.4223 139.291H86.0003C85.893 138.475 85.2121 137.826 84.3554 137.724V138.274H83.8812V137.724C83.0245 137.826 82.3436 138.475 82.2363 139.291H82.8143V139.742H82.2363C82.3436 140.559 83.0245 141.207 83.8812 141.31V140.759H84.3554V141.31C85.2121 141.207 85.893 140.559 86.0003 139.742H85.4223V139.291ZM84.1183 139.968C83.8568 139.968 83.6441 139.766 83.6441 139.517C83.6441 139.267 83.8568 139.065 84.1183 139.065C84.3798 139.065 84.5925 139.267 84.5925 139.517C84.5925 139.766 84.3798 139.968 84.1183 139.968Z" fill="white"/>
<path d="M81.7679 135.482C81.7679 134.494 80.9236 133.689 79.8859 133.689C78.8482 133.689 78.0039 134.494 78.0039 135.482C78.0039 136.471 78.8482 137.275 79.8859 137.275C80.2587 137.275 80.6065 137.172 80.8992 136.993L81.7964 137.278L81.4939 136.413C81.6677 136.142 81.7679 135.823 81.7679 135.482ZM79.6506 135.482H78.7096V135.034H79.6506V135.482ZM80.1211 135.034H81.0621V135.482H80.1211V135.034Z" fill="white"/>
<path d="M91.8939 276C91.8939 276.598 91.8245 277.118 91.6859 277.56C91.5429 278.006 91.3457 278.396 91.0944 278.73C90.843 279.068 90.5505 279.374 90.2169 279.647C89.8832 279.92 89.5257 280.182 89.1444 280.433C88.8454 280.637 88.568 280.845 88.3124 281.057C88.0567 281.269 87.8509 281.501 87.6949 281.753C87.5345 282.008 87.4544 282.301 87.4544 282.63C87.4544 283.068 87.5865 283.425 87.8509 283.703C88.1109 283.98 88.4705 284.119 88.9299 284.119C89.4109 284.119 89.803 283.999 90.1064 283.761C90.4097 283.527 90.622 283.213 90.7434 282.819L91.8354 283.312C91.714 283.685 91.5169 284.017 91.2439 284.307C90.9709 284.602 90.6394 284.834 90.2494 285.003C89.855 285.172 89.4174 285.256 88.9364 285.256C88.36 285.256 87.8682 285.146 87.4609 284.925C87.0535 284.704 86.7415 284.396 86.5249 284.002C86.3082 283.612 86.1999 283.161 86.1999 282.65C86.1999 282.108 86.3082 281.649 86.5249 281.272C86.7415 280.895 87.0319 280.561 87.3959 280.271C87.7599 279.98 88.1607 279.694 88.5984 279.413C88.9104 279.213 89.205 278.999 89.4824 278.769C89.7554 278.544 89.985 278.299 90.1714 278.035C90.3577 277.77 90.4704 277.484 90.5094 277.177H86.1219V276H91.8939Z" fill="white"/>
<path d="M155.062 136.65C154.979 136.567 154.979 136.433 155.062 136.35L158.35 133.062C158.433 132.979 158.567 132.979 158.65 133.062L161.938 136.35C162.021 136.433 162.021 136.567 161.938 136.65L158.65 139.938C158.567 140.021 158.433 140.021 158.35 139.938L155.062 136.65Z" fill="white"/>
<path d="M76.0621 280.65C75.9793 280.567 75.9793 280.433 76.0621 280.35L79.3501 277.062C79.4329 276.979 79.5671 276.979 79.6499 277.062L82.9379 280.35C83.0207 280.433 83.0207 280.567 82.9379 280.65L79.6499 283.938C79.5671 284.021 79.4329 284.021 79.3501 283.938L76.0621 280.65Z" fill="white"/>
<defs>
<filter id="filter0_d_4233_8960" x="-64.1613" y="0.935489" width="377.323" height="438.323" filterUnits="userSpaceOnUse" color-interpolation-filters="sRGB">
<feFlood flood-opacity="0" result="BackgroundImageFix"/>
<feColorMatrix in="SourceAlpha" type="matrix" values="0 0 0 0 0 0 0 0 0 0 0 0 0 0 0 0 0 0 127 0" result="hardAlpha"/>
<feOffset dy="11.0968"/>
<feGaussianBlur stdDeviation="66.5806"/>
<feComposite in2="hardAlpha" operator="out"/>
<feColorMatrix type="matrix" values="0 0 0 0 0.0823529 0 0 0 0 0.0823529 0 0 0 0 0.117647 0 0 0 0.5 0"/>
<feBlend mode="multiply" in2="BackgroundImageFix" result="effect1_dropShadow_4233_8960"/>
<feBlend mode="normal" in="SourceGraphic" in2="effect1_dropShadow_4233_8960" result="shape"/>
</filter>
<filter id="filter1_f_4233_8960" x="135.359" y="123.359" width="41.6041" height="41.6041" filterUnits="userSpaceOnUse" color-interpolation-filters="sRGB">
<feFlood flood-opacity="0" result="BackgroundImageFix"/>
<feBlend mode="normal" in="SourceGraphic" in2="BackgroundImageFix" result="shape"/>
<feGaussianBlur stdDeviation="1.38955" result="effect1_foregroundBlur_4233_8960"/>
</filter>
<filter id="filter2_f_4233_8960" x="54.2068" y="156.207" width="65.4369" height="65.4371" filterUnits="userSpaceOnUse" color-interpolation-filters="sRGB">
<feFlood flood-opacity="0" result="BackgroundImageFix"/>
<feBlend mode="normal" in="SourceGraphic" in2="BackgroundImageFix" result="shape"/>
<feGaussianBlur stdDeviation="1.24179" result="effect1_foregroundBlur_4233_8960"/>
</filter>
<filter id="filter3_f_4233_8960" x="117.141" y="225.142" width="74.289" height="74.2887" filterUnits="userSpaceOnUse" color-interpolation-filters="sRGB">
<feFlood flood-opacity="0" result="BackgroundImageFix"/>
<feBlend mode="normal" in="SourceGraphic" in2="BackgroundImageFix" result="shape"/>
<feGaussianBlur stdDeviation="2.28806" result="effect1_foregroundBlur_4233_8960"/>
</filter>
<filter id="filter4_df_4233_8960" x="73.7168" y="185.718" width="161.137" height="161.136" filterUnits="userSpaceOnUse" color-interpolation-filters="sRGB">
<feFlood flood-opacity="0" result="BackgroundImageFix"/>
<feColorMatrix in="SourceAlpha" type="matrix" values="0 0 0 0 0 0 0 0 0 0 0 0 0 0 0 0 0 0 127 0" result="hardAlpha"/>
<feOffset dy="4"/>
<feGaussianBlur stdDeviation="24"/>
<feComposite in2="hardAlpha" operator="out"/>
<feColorMatrix type="matrix" values="0 0 0 0 0.0823529 0 0 0 0 0.0823529 0 0 0 0 0.117647 0 0 0 0.5 0"/>
<feBlend mode="multiply" in2="BackgroundImageFix" result="effect1_dropShadow_4233_8960"/>
<feBlend mode="normal" in="SourceGraphic" in2="effect1_dropShadow_4233_8960" result="shape"/>
<feGaussianBlur stdDeviation="2.28806" result="effect2_foregroundBlur_4233_8960"/>
</filter>
<linearGradient id="paint0_linear_4233_8960" x1="148.356" y1="116.704" x2="159.781" y2="154.95" gradientUnits="userSpaceOnUse">
<stop stop-color="#15151E"/>
<stop offset="1" stop-color="#15151E" stop-opacity="0"/>
</linearGradient>
<linearGradient id="paint1_linear_4233_8960" x1="182.436" y1="215.229" x2="143.951" y2="281.552" gradientUnits="userSpaceOnUse">
<stop stop-color="#15151E"/>
<stop offset="1" stop-color="#15151E" stop-opacity="0"/>
</linearGradient>
<linearGradient id="paint2_linear_4233_8960" x1="182.436" y1="215.229" x2="143.951" y2="281.552" gradientUnits="userSpaceOnUse">
<stop stop-color="#15151E"/>
<stop offset="1" stop-color="#15151E" stop-opacity="0"/>
</linearGradient>
</defs>
</svg>
